<?xml version="1.0" encoding="utf-8"?>
<!-- Generator: Adobe Illustrator 16.0.0, SVG Export Plug-In . SVG Version: 6.00 Build 0)  -->
<!DOCTYPE svg PUBLIC "-//W3C//DTD SVG 1.1//EN" "http://www.w3.org/Graphics/SVG/1.1/DTD/svg11.dtd">
<svg version="1.1" id="レイヤー_1" xmlns="http://www.w3.org/2000/svg" xmlns:xlink="http://www.w3.org/1999/xlink" x="0px"
	 y="0px" width="164.396px" height="44px" viewBox="0 0 164.396 44" enable-background="new 0 0 164.396 44" xml:space="preserve">
<g>
	<g>
		<rect x="58.604" y="21.347" fill="#003B90" width="4.176" height="22.098"/>
		<polygon fill="#003B90" points="69.373,21.347 73.408,21.347 82.865,35.889 82.865,21.347 87.068,21.347 87.068,43.444 
			83.023,43.444 73.579,28.947 73.579,43.444 69.373,43.444 		"/>
		<polygon fill="#003B90" points="91.786,21.347 103.997,21.347 103.997,25.493 99.97,25.493 99.97,43.444 95.706,43.444 
			95.706,25.493 91.786,25.493 		"/>
		<polygon fill="#003B90" points="108.742,21.347 120.806,21.347 120.806,25.463 112.918,25.463 112.918,29.458 120.806,29.458 
			120.806,33.5 112.918,33.5 112.918,39.314 120.806,39.314 120.806,43.444 108.742,43.444 		"/>
		<path fill="#003B90" d="M146.883,25.232l-2.939,2.803c-2.003-2.116-4.256-3.173-6.757-3.173c-2.11,0-3.889,0.724-5.335,2.165
			c-1.445,1.442-2.168,3.223-2.168,5.341c0,1.47,0.319,2.776,0.959,3.923c0.64,1.144,1.546,2.039,2.717,2.691
			c1.171,0.652,2.471,0.979,3.902,0.979c1.221,0,2.336-0.229,3.346-0.687c1.013-0.454,2.122-1.285,3.336-2.487l2.85,2.975
			c-1.633,1.594-3.176,2.697-4.627,3.314c-1.451,0.615-3.111,0.924-4.972,0.924c-3.438,0-6.247-1.088-8.435-3.266
			c-2.187-2.18-3.282-4.971-3.282-8.375c0-2.204,0.497-4.162,1.496-5.875c0.995-1.711,2.42-3.089,4.279-4.13
			c1.857-1.042,3.858-1.563,6.003-1.563c1.822,0,3.577,0.385,5.264,1.155S145.662,23.811,146.883,25.232"/>
		<path fill="#003B90" d="M164.008,24.35l-3.115,2.75c-1.096-1.521-2.211-2.281-3.342-2.281c-0.553,0-1.003,0.148-1.355,0.441
			c-0.35,0.296-0.526,0.629-0.526,1c0,0.369,0.126,0.722,0.374,1.051c0.343,0.442,1.373,1.387,3.088,2.838
			c1.604,1.344,2.578,2.19,2.92,2.542c0.85,0.859,1.455,1.683,1.812,2.47s0.534,1.645,0.534,2.575c0,1.813-0.627,3.31-1.877,4.493
			c-1.256,1.183-2.889,1.771-4.904,1.771c-1.575,0-2.946-0.385-4.114-1.156c-1.167-0.77-2.167-1.982-3.001-3.637l3.537-2.131
			c1.063,1.951,2.287,2.928,3.67,2.928c0.725,0,1.33-0.209,1.82-0.632c0.492-0.419,0.737-0.905,0.737-1.456
			c0-0.5-0.185-1-0.556-1.502c-0.372-0.5-1.188-1.27-2.452-2.298c-2.407-1.963-3.964-3.476-4.666-4.542
			c-0.702-1.068-1.052-2.134-1.052-3.195c0-1.532,0.581-2.846,1.75-3.94c1.168-1.099,2.609-1.648,4.324-1.648
			c1.104,0,2.155,0.256,3.152,0.768C161.76,22.068,162.843,22.999,164.008,24.35"/>
	</g>
	<path d="M23.406,40.949c0,0.871,0.95,1.308,2.852,1.308c0.423,0,0.638,0.266,0.638,0.798c0,0.632-1.074,0.945-3.22,0.945
		c-2.442,0-3.66-1.162-3.66-3.487c0-2.714,3.603-8.384,10.806-17.011L17.588,34.309C9.774,40.706,4.105,43.904,0.58,43.904
		c-0.385,0-0.58-0.218-0.58-0.647c0-0.6,0.324-0.964,0.97-1.099c2.036-0.386,3.892-1.044,5.573-1.979
		c2.1-1.161,6.557-4.435,13.375-9.819l14.826-12.432c0.648-0.224,1.52-0.337,2.619-0.337c1.096,0,1.648,0.628,1.648,1.886
		c0,1.355-2.603,5.006-7.803,10.954C26.007,36.379,23.406,39.888,23.406,40.949"/>
	<path fill="#003B90" d="M44.825,7.415c-1.549,0-2.326-0.791-2.326-2.375c0-1.327,0.792-2.519,2.374-3.586
		C46.294,0.485,47.719,0,49.139,0c1.678,0,2.518,0.922,2.518,2.762c0,1.325-0.84,2.456-2.518,3.391
		C47.684,6.996,46.246,7.415,44.825,7.415"/>
</g>
</svg>
